<svg xmlns="http://www.w3.org/2000/svg" version="1.1" xmlns:xlink="http://www.w3.org/1999/xlink" xmlns:svgjs="http://svgjs.dev/svgjs" viewBox="0 0 800 800" opacity="1" width="800" height="800">
<g stroke-width="10" stroke="#6366f1ff" fill="none">
    <circle r="10" cx="100" cy="88.88888888888889" fill="#6366f1ff" stroke="none"></circle>
    <circle r="10" cx="200" cy="88.88888888888889" fill="#6366f1ff" stroke="none"></circle>
    <circle r="10" cx="300" cy="88.88888888888889" fill="#6366f1ff" stroke="none"></circle>
    <circle r="10" cx="400" cy="88.88888888888889" fill="#6366f1ff" stroke="none"></circle>
    <circle r="10" cx="500" cy="88.88888888888889" fill="#6366f1ff" stroke="none"></circle>
    <circle r="10" cx="600" cy="88.88888888888889" fill="#6366f1ff" stroke="none"></circle>
    <circle r="10" cx="700" cy="88.88888888888889" fill="#6366f1ff" stroke="none"></circle>
    <circle r="10" cx="100" cy="177.77777777777777" fill="#6366f1ff" stroke="none"></circle>
    <circle r="10" cx="200" cy="177.77777777777777" fill="#6366f1ff" stroke="none"></circle>
    <circle r="10" cx="300" cy="177.77777777777777" fill="#6366f1ff" stroke="none"></circle>
    <circle r="10" cx="400" cy="177.77777777777777" fill="#6366f1ff" stroke="none"></circle>
    <circle r="10" cx="500" cy="177.77777777777777" fill="#6366f1ff" stroke="none"></circle>
    <circle r="10" cx="600" cy="177.77777777777777" fill="#6366f1ff" stroke="none"></circle>
    <circle r="10" cx="700" cy="177.77777777777777" fill="#6366f1ff" stroke="none"></circle>
    <circle r="10" cx="100" cy="266.66666666666663" fill="#6366f1ff" stroke="none"></circle>
    <circle r="10" cx="200" cy="266.66666666666663" fill="#6366f1ff" stroke="none"></circle>
    <circle r="10" cx="300" cy="266.66666666666663" fill="#6366f1ff" stroke="none"></circle>
    <circle r="10" cx="400" cy="266.66666666666663" fill="#6366f1ff" stroke="none"></circle>
    <circle r="10" cx="500" cy="266.66666666666663" fill="#6366f1ff" stroke="none"></circle>
    <circle r="10" cx="600" cy="266.66666666666663" fill="#6366f1ff" stroke="none"></circle>
    <circle r="10" cx="700" cy="266.66666666666663" fill="#6366f1ff" stroke="none"></circle>
    <circle r="10" cx="100" cy="355.55555555555554" fill="#6366f1ff" stroke="none"></circle>
    <circle r="10" cx="200" cy="355.55555555555554" fill="#6366f1ff" stroke="none"></circle>
    <circle r="10" cx="300" cy="355.55555555555554" fill="#6366f1ff" stroke="none"></circle>
    <circle r="10" cx="400" cy="355.55555555555554" fill="#6366f1ff" stroke="none"></circle>
    <circle r="10" cx="500" cy="355.55555555555554" fill="#6366f1ff" stroke="none"></circle>
    <circle r="10" cx="600" cy="355.55555555555554" fill="#6366f1ff" stroke="none"></circle>
    <circle r="10" cx="700" cy="355.55555555555554" fill="#6366f1ff" stroke="none"></circle>
    <circle r="10" cx="100" cy="444.44444444444446" fill="#6366f1ff" stroke="none"></circle>
    <circle r="10" cx="200" cy="444.44444444444446" fill="#6366f1ff" stroke="none"></circle>
    <circle r="10" cx="300" cy="444.44444444444446" fill="#6366f1ff" stroke="none"></circle>
    <circle r="10" cx="400" cy="444.44444444444446" fill="#6366f1ff" stroke="none"></circle>
    <circle r="10" cx="500" cy="444.44444444444446" fill="#6366f1ff" stroke="none"></circle>
    <circle r="10" cx="600" cy="444.44444444444446" fill="#6366f1ff" stroke="none"></circle>
    <circle r="10" cx="700" cy="444.44444444444446" fill="#6366f1ff" stroke="none"></circle>
    <circle r="10" cx="100" cy="533.3333333333334" fill="#6366f1ff" stroke="none"></circle>
    <circle r="10" cx="200" cy="533.3333333333334" fill="#6366f1ff" stroke="none"></circle>
    <circle r="10" cx="300" cy="533.3333333333334" fill="#6366f1ff" stroke="none"></circle>
    <circle r="10" cx="400" cy="533.3333333333334" fill="#6366f1ff" stroke="none"></circle>
    <circle r="10" cx="500" cy="533.3333333333334" fill="#6366f1ff" stroke="none"></circle>
    <circle r="10" cx="600" cy="533.3333333333334" fill="#6366f1ff" stroke="none"></circle>
    <circle r="10" cx="700" cy="533.3333333333334" fill="#6366f1ff" stroke="none"></circle>
    <circle r="10" cx="100" cy="622.2222222222223" fill="#6366f1ff" stroke="none"></circle>
    <circle r="10" cx="200" cy="622.2222222222223" fill="#6366f1ff" stroke="none"></circle>
    <circle r="10" cx="300" cy="622.2222222222223" fill="#6366f1ff" stroke="none"></circle>
    <circle r="10" cx="400" cy="622.2222222222223" fill="#6366f1ff" stroke="none"></circle>
    <circle r="10" cx="500" cy="622.2222222222223" fill="#6366f1ff" stroke="none"></circle>
    <circle r="10" cx="600" cy="622.2222222222223" fill="#6366f1ff" stroke="none"></circle>
    <circle r="10" cx="700" cy="622.2222222222223" fill="#6366f1ff" stroke="none"></circle>
    <circle r="10" cx="100" cy="711.1111111111112" fill="#6366f1ff" stroke="none"></circle>
    <circle r="10" cx="200" cy="711.1111111111112" fill="#6366f1ff" stroke="none"></circle>
    <circle r="10" cx="300" cy="711.1111111111112" fill="#6366f1ff" stroke="none"></circle>
    <circle r="10" cx="400" cy="711.1111111111112" fill="#6366f1ff" stroke="none"></circle>
    <circle r="10" cx="500" cy="711.1111111111112" fill="#6366f1ff" stroke="none"></circle>
    <circle r="10" cx="600" cy="711.1111111111112" fill="#6366f1ff" stroke="none"></circle>
    <circle r="10" cx="700" cy="711.1111111111112" fill="#6366f1ff" stroke="none"></circle>
    </g></svg>